<mxfile host="app.diagrams.net" modified="2023-06-19T10:42:01.436Z" agent="Mozilla/5.0 (Macintosh; Intel Mac OS X 10_15_7) AppleWebKit/537.36 (KHTML, like Gecko) Chrome/114.0.0.0 Safari/537.36" etag="-cdyuygRTM-EWFLEcPpC" version="21.5.0" type="github" pages="5">
  <diagram id="V3thxfnV-d8ceJq-v-Ow" name="taxonomy">
    <mxGraphModel dx="954" dy="2913" grid="1" gridSize="10" guides="1" tooltips="1" connect="1" arrows="1" fold="1" page="1" pageScale="1" pageWidth="827" pageHeight="1169" math="0" shadow="0">
      <root>
        <mxCell id="8NLefJ6BLpWgVJT6n-Gh-0" />
        <mxCell id="8NLefJ6BLpWgVJT6n-Gh-1" parent="8NLefJ6BLpWgVJT6n-Gh-0" />
        <mxCell id="8NLefJ6BLpWgVJT6n-Gh-5" value="&lt;span style=&quot;color: rgb(0 , 0 , 0) ; font-size: 27px ; font-style: normal ; font-weight: 700 ; letter-spacing: normal ; text-align: center ; text-indent: 0px ; text-transform: none ; word-spacing: 0px ; display: inline ; float: none&quot;&gt;DeFi on Blockchain&lt;/span&gt;" style="rounded=0;whiteSpace=wrap;html=1;fillColor=none;verticalAlign=top;fontSize=27;fontFamily=Times New Roman;" parent="8NLefJ6BLpWgVJT6n-Gh-1" vertex="1">
          <mxGeometry x="10" y="-1220" width="1010" height="620" as="geometry" />
        </mxCell>
        <mxCell id="8NLefJ6BLpWgVJT6n-Gh-6" value="DEX" style="rounded=0;whiteSpace=wrap;html=1;fillColor=#d5e8d4;fontStyle=5;verticalAlign=top;strokeColor=#82b366;strokeOpacity=100;fillOpacity=50;strokeWidth=5;fontFamily=Times New Roman;fontSize=25;" parent="8NLefJ6BLpWgVJT6n-Gh-1" vertex="1">
          <mxGeometry x="160" y="-1170" width="380" height="390" as="geometry" />
        </mxCell>
        <mxCell id="7Dg9tTagB5A5kfkCeSt4-0" value="&lt;span style=&quot;font-size: 25px;&quot;&gt;AMM&lt;/span&gt;" style="rounded=1;whiteSpace=wrap;html=1;fillColor=#fad9d5;opacity=50;verticalAlign=top;strokeColor=#ae4132;fontColor=#AE4132;fontStyle=5;fontFamily=Times New Roman;fontSize=25;arcSize=6;" parent="8NLefJ6BLpWgVJT6n-Gh-1" vertex="1">
          <mxGeometry x="195.9" y="-1060" width="754.1" height="420" as="geometry" />
        </mxCell>
        <mxCell id="ZKpyUXxN5n6o346WIu5Y-1" value="&lt;span style=&quot;color: rgb(174 , 65 , 50) ; font-family: &amp;quot;times new roman&amp;quot; ; font-size: 25px ; font-weight: 700&quot;&gt;Constant function&lt;/span&gt;" style="rounded=1;whiteSpace=wrap;html=1;verticalAlign=top;labelBackgroundColor=none;fillColor=none;" parent="8NLefJ6BLpWgVJT6n-Gh-1" vertex="1">
          <mxGeometry x="202.94" y="-1020" width="457.06" height="340" as="geometry" />
        </mxCell>
        <mxCell id="yfy_TuskieBGScGomKW7-1" value="Prediction market" style="rounded=0;whiteSpace=wrap;html=1;fillColor=#fff2cc;fontStyle=5;verticalAlign=top;strokeColor=#d6b656;fillOpacity=50;strokeWidth=5;fontFamily=Times New Roman;fontSize=25;" parent="8NLefJ6BLpWgVJT6n-Gh-1" vertex="1">
          <mxGeometry x="767.99" y="-1174.5" width="226.83" height="180" as="geometry" />
        </mxCell>
        <mxCell id="8NLefJ6BLpWgVJT6n-Gh-4" value="&lt;span style=&quot;font-size: 22px; font-style: normal; font-weight: 700; letter-spacing: normal; text-align: center; text-indent: 0px; text-transform: none; word-spacing: 0px; display: inline; float: none;&quot;&gt;Constant product&lt;/span&gt;" style="rounded=1;whiteSpace=wrap;html=1;fillColor=none;arcSize=28;verticalAlign=bottom;fontFamily=Times New Roman;fontSize=22;" parent="8NLefJ6BLpWgVJT6n-Gh-1" vertex="1">
          <mxGeometry x="220" y="-930" width="410" height="140" as="geometry" />
        </mxCell>
        <mxCell id="8NLefJ6BLpWgVJT6n-Gh-9" value="&lt;span style=&quot;color: rgb(0 , 0 , 0) ; font-size: 25px ; font-style: normal ; font-weight: 700 ; letter-spacing: normal ; text-indent: 0px ; text-transform: none ; word-spacing: 0px ; display: inline ; float: none&quot;&gt;Lending platform&lt;/span&gt;" style="rounded=0;whiteSpace=wrap;html=1;fillColor=#dae8fc;fontStyle=5;verticalAlign=bottom;strokeColor=#6c8ebf;fillOpacity=50;strokeWidth=5;fontFamily=Times New Roman;fontSize=25;align=left;" parent="8NLefJ6BLpWgVJT6n-Gh-1" vertex="1">
          <mxGeometry x="30" y="-750" width="460" height="100" as="geometry" />
        </mxCell>
        <mxCell id="8NLefJ6BLpWgVJT6n-Gh-10" style="edgeStyle=orthogonalEdgeStyle;rounded=0;orthogonalLoop=1;jettySize=auto;html=1;exitX=0;exitY=0.5;exitDx=0;exitDy=0;entryX=0.211;entryY=0.007;entryDx=0;entryDy=0;fontColor=#000000;fontFamily=Times New Roman;fontSize=25;entryPerimeter=0;" parent="8NLefJ6BLpWgVJT6n-Gh-1" source="8NLefJ6BLpWgVJT6n-Gh-6" target="8NLefJ6BLpWgVJT6n-Gh-9" edge="1">
          <mxGeometry x="10" y="-1110" as="geometry" />
        </mxCell>
        <mxCell id="8NLefJ6BLpWgVJT6n-Gh-15" value="&lt;span style=&quot;color: rgb(0, 0, 0); font-size: 22px; font-style: normal; font-weight: 700; letter-spacing: normal; text-align: center; text-indent: 0px; text-transform: none; word-spacing: 0px; display: inline; float: none;&quot;&gt;Constant sum&lt;/span&gt;" style="rounded=1;whiteSpace=wrap;html=1;fillColor=none;arcSize=38;verticalAlign=top;fontFamily=Times New Roman;fontSize=22;" parent="8NLefJ6BLpWgVJT6n-Gh-1" vertex="1">
          <mxGeometry x="220" y="-987.5" width="410" height="88.5" as="geometry" />
        </mxCell>
        <mxCell id="8NLefJ6BLpWgVJT6n-Gh-16" value="&lt;span style=&quot;font-size: 20px;&quot;&gt;mStable&lt;/span&gt;" style="text;html=1;align=center;verticalAlign=middle;resizable=0;points=[];autosize=1;strokeColor=none;fillColor=none;fontColor=#000000;fontStyle=2;fontFamily=Times New Roman;fontSize=20;" parent="8NLefJ6BLpWgVJT6n-Gh-1" vertex="1">
          <mxGeometry x="248.99694915254236" y="-966" width="80" height="30" as="geometry" />
        </mxCell>
        <mxCell id="8NLefJ6BLpWgVJT6n-Gh-17" value="DODO" style="text;html=1;align=center;verticalAlign=middle;resizable=0;points=[];autosize=1;strokeColor=none;fillColor=none;fontStyle=2;fontFamily=Times New Roman;fontSize=20;" parent="8NLefJ6BLpWgVJT6n-Gh-1" vertex="1">
          <mxGeometry x="230.00338983050847" y="-847.5" width="70" height="30" as="geometry" />
        </mxCell>
        <mxCell id="8NLefJ6BLpWgVJT6n-Gh-18" value="Balancer" style="text;html=1;align=center;verticalAlign=middle;resizable=0;points=[];autosize=1;strokeColor=none;fillColor=none;fontStyle=2;fontFamily=Times New Roman;fontSize=20;" parent="8NLefJ6BLpWgVJT6n-Gh-1" vertex="1">
          <mxGeometry x="440.00559322033894" y="-894.5" width="90" height="30" as="geometry" />
        </mxCell>
        <mxCell id="8NLefJ6BLpWgVJT6n-Gh-19" value="Uniswap" style="text;html=1;align=center;verticalAlign=middle;resizable=0;points=[];autosize=1;strokeColor=none;fillColor=none;fontStyle=2;fontFamily=Times New Roman;fontSize=20;" parent="8NLefJ6BLpWgVJT6n-Gh-1" vertex="1">
          <mxGeometry x="332.08830508474574" y="-875" width="90" height="30" as="geometry" />
        </mxCell>
        <mxCell id="8NLefJ6BLpWgVJT6n-Gh-20" value="Curve" style="text;html=1;align=center;verticalAlign=middle;resizable=0;points=[];autosize=1;strokeColor=none;fillColor=none;fontColor=#000000;fontStyle=2;fontFamily=Times New Roman;fontSize=20;" parent="8NLefJ6BLpWgVJT6n-Gh-1" vertex="1">
          <mxGeometry x="384.00338983050847" y="-930.25" width="60" height="30" as="geometry" />
        </mxCell>
        <mxCell id="8NLefJ6BLpWgVJT6n-Gh-21" value="Provide price oracle" style="text;html=1;strokeColor=none;fillColor=none;align=center;verticalAlign=middle;whiteSpace=wrap;rounded=0;fontColor=#000000;fontFamily=Times New Roman;fontSize=25;labelBackgroundColor=default;" parent="8NLefJ6BLpWgVJT6n-Gh-1" vertex="1">
          <mxGeometry x="67.11864406779661" y="-902.5" width="49.49152542372881" height="20" as="geometry" />
        </mxCell>
        <mxCell id="yfy_TuskieBGScGomKW7-6" value="Stablecoin" style="rounded=0;whiteSpace=wrap;html=1;fillColor=#e1d5e7;fontStyle=5;verticalAlign=bottom;strokeColor=#9673a6;fillOpacity=50;strokeWidth=5;fontFamily=Times New Roman;fontSize=25;" parent="8NLefJ6BLpWgVJT6n-Gh-1" vertex="1">
          <mxGeometry x="767.99" y="-824.5" width="226.83" height="90" as="geometry" />
        </mxCell>
        <mxCell id="8NLefJ6BLpWgVJT6n-Gh-14" value="&lt;p class=&quot;p1&quot; style=&quot;font-size: 20px;&quot;&gt;Augur&lt;/p&gt;" style="text;whiteSpace=wrap;html=1;fontStyle=2;fontFamily=Times New Roman;fontSize=20;verticalAlign=middle;align=center;" parent="8NLefJ6BLpWgVJT6n-Gh-1" vertex="1">
          <mxGeometry x="767.23" y="-1033.75" width="65.54" height="46.25" as="geometry" />
        </mxCell>
        <mxCell id="yfy_TuskieBGScGomKW7-9" value="Gyroscope" style="text;html=1;align=center;verticalAlign=middle;resizable=0;points=[];autosize=1;strokeColor=none;fillColor=none;fontStyle=2;fontFamily=Times New Roman;fontSize=20;" parent="8NLefJ6BLpWgVJT6n-Gh-1" vertex="1">
          <mxGeometry x="793.87" y="-802" width="100" height="30" as="geometry" />
        </mxCell>
        <mxCell id="yfy_TuskieBGScGomKW7-12" value="Bancor" style="text;html=1;align=center;verticalAlign=middle;resizable=0;points=[];autosize=1;strokeColor=none;fillColor=none;fontStyle=2;fontFamily=Times New Roman;fontSize=20;" parent="8NLefJ6BLpWgVJT6n-Gh-1" vertex="1">
          <mxGeometry x="460.00338983050847" y="-847.5" width="70" height="30" as="geometry" />
        </mxCell>
        <mxCell id="yfy_TuskieBGScGomKW7-14" value="Derivative" style="rounded=0;whiteSpace=wrap;html=1;fillColor=#bac8d3;fontStyle=5;verticalAlign=bottom;strokeColor=#23445d;fillOpacity=50;strokeWidth=5;fontFamily=Times New Roman;fontSize=25;" parent="8NLefJ6BLpWgVJT6n-Gh-1" vertex="1">
          <mxGeometry x="768" y="-700.5" width="226.83" height="90" as="geometry" />
        </mxCell>
        <mxCell id="yfy_TuskieBGScGomKW7-15" value="Pods finance" style="text;html=1;align=center;verticalAlign=middle;resizable=0;points=[];autosize=1;strokeColor=none;fillColor=none;fontStyle=2;fontFamily=Times New Roman;fontSize=20;" parent="8NLefJ6BLpWgVJT6n-Gh-1" vertex="1">
          <mxGeometry x="802.23" y="-684.5" width="120" height="30" as="geometry" />
        </mxCell>
        <mxCell id="yfy_TuskieBGScGomKW7-16" value="NFT" style="rounded=0;whiteSpace=wrap;html=1;fillColor=#ffff88;fontStyle=5;verticalAlign=middle;fillOpacity=50;strokeWidth=5;align=right;strokeColor=#999900;fontFamily=Times New Roman;fontSize=25;" parent="8NLefJ6BLpWgVJT6n-Gh-1" vertex="1">
          <mxGeometry x="768" y="-966" width="226.83" height="101.5" as="geometry" />
        </mxCell>
        <mxCell id="yfy_TuskieBGScGomKW7-17" value="&lt;p class=&quot;p1&quot; style=&quot;font-size: 20px;&quot;&gt;EulerBeats&lt;/p&gt;" style="text;whiteSpace=wrap;html=1;fontStyle=2;fontFamily=Times New Roman;fontSize=20;align=center;verticalAlign=middle;" parent="8NLefJ6BLpWgVJT6n-Gh-1" vertex="1">
          <mxGeometry x="830" y="-934.5" width="41.08" height="50" as="geometry" />
        </mxCell>
        <mxCell id="7Dg9tTagB5A5kfkCeSt4-1" value="&lt;span style=&quot;font-size: 25px;&quot;&gt;Orderbook&lt;/span&gt;" style="rounded=1;whiteSpace=wrap;html=1;fillColor=#b0e3e6;opacity=50;verticalAlign=top;strokeColor=#0e8088;fontColor=#0E8088;fontFamily=Times New Roman;fontStyle=5;fontSize=25;" parent="8NLefJ6BLpWgVJT6n-Gh-1" vertex="1">
          <mxGeometry x="190" y="-1134" width="340" height="104" as="geometry" />
        </mxCell>
        <mxCell id="8NLefJ6BLpWgVJT6n-Gh-13" value="&lt;span style=&quot;color: rgb(0, 0, 0); font-size: 20px; font-weight: 400; letter-spacing: normal; text-indent: 0px; text-transform: none; word-spacing: 0px; display: inline; float: none;&quot;&gt;&lt;i style=&quot;font-size: 20px;&quot;&gt;Gnosis&lt;/i&gt;&lt;/span&gt;" style="text;whiteSpace=wrap;html=1;align=center;verticalAlign=middle;fontFamily=Times New Roman;fontSize=20;" parent="8NLefJ6BLpWgVJT6n-Gh-1" vertex="1">
          <mxGeometry x="218.90000000000003" y="-1098" width="62.42" height="30" as="geometry" />
        </mxCell>
        <mxCell id="2ZV9WGzVLGw2hKH8Ku8l-0" value="&lt;span style=&quot;color: rgb(0, 0, 0); font-size: 20px; font-weight: 400; letter-spacing: normal; text-indent: 0px; text-transform: none; word-spacing: 0px; display: inline; float: none;&quot;&gt;&lt;i style=&quot;font-size: 20px;&quot;&gt;dYdX&lt;/i&gt;&lt;/span&gt;" style="text;whiteSpace=wrap;html=1;align=center;verticalAlign=middle;fontFamily=Times New Roman;fontSize=20;" parent="8NLefJ6BLpWgVJT6n-Gh-1" vertex="1">
          <mxGeometry x="313.14000000000004" y="-1098" width="62.42" height="30" as="geometry" />
        </mxCell>
        <mxCell id="2ZV9WGzVLGw2hKH8Ku8l-2" value="Sushiswap" style="text;html=1;align=center;verticalAlign=middle;resizable=0;points=[];autosize=1;strokeColor=none;fillColor=none;fontStyle=2;fontFamily=Times New Roman;fontSize=20;" parent="8NLefJ6BLpWgVJT6n-Gh-1" vertex="1">
          <mxGeometry x="224.16830508474575" y="-895" width="100" height="30" as="geometry" />
        </mxCell>
        <mxCell id="2ZV9WGzVLGw2hKH8Ku8l-4" value="&lt;span style=&quot;color: rgb(0, 0, 0); font-size: 22px; font-style: normal; font-weight: 700; letter-spacing: normal; text-align: center; text-indent: 0px; text-transform: none; word-spacing: 0px; display: inline; float: none;&quot;&gt;Constant power sum&lt;/span&gt;" style="rounded=1;whiteSpace=wrap;html=1;fillColor=none;arcSize=38;verticalAlign=top;fontFamily=Times New Roman;fontSize=22;" parent="8NLefJ6BLpWgVJT6n-Gh-1" vertex="1">
          <mxGeometry x="230" y="-787" width="400" height="100" as="geometry" />
        </mxCell>
        <mxCell id="2ZV9WGzVLGw2hKH8Ku8l-5" value="YieldSpace" style="text;html=1;align=center;verticalAlign=middle;resizable=0;points=[];autosize=1;strokeColor=none;fillColor=none;fontStyle=2;fontFamily=Times New Roman;fontSize=20;" parent="8NLefJ6BLpWgVJT6n-Gh-1" vertex="1">
          <mxGeometry x="328.9933898305085" y="-735" width="100" height="30" as="geometry" />
        </mxCell>
        <mxCell id="2ZV9WGzVLGw2hKH8Ku8l-6" value="Compound" style="text;html=1;align=center;verticalAlign=middle;resizable=0;points=[];autosize=1;strokeColor=none;fillColor=none;fontColor=#000000;fontStyle=2;fontFamily=Times New Roman;fontSize=20;" parent="8NLefJ6BLpWgVJT6n-Gh-1" vertex="1">
          <mxGeometry x="90.00338983050844" y="-710" width="100" height="30" as="geometry" />
        </mxCell>
        <mxCell id="2ZV9WGzVLGw2hKH8Ku8l-7" value="Aave" style="text;html=1;align=center;verticalAlign=middle;resizable=0;points=[];autosize=1;strokeColor=none;fillColor=none;fontColor=#000000;fontStyle=2;fontFamily=Times New Roman;fontSize=20;" parent="8NLefJ6BLpWgVJT6n-Gh-1" vertex="1">
          <mxGeometry x="40.00338983050844" y="-740" width="60" height="30" as="geometry" />
        </mxCell>
        <mxCell id="ZKpyUXxN5n6o346WIu5Y-2" value="&lt;span style=&quot;color: rgb(174 , 65 , 50) ; font-family: &amp;#34;times new roman&amp;#34; ; font-size: 25px ; font-weight: 700&quot;&gt;LMSR&lt;/span&gt;" style="rounded=1;whiteSpace=wrap;html=1;labelBackgroundColor=none;fillColor=none;verticalAlign=top;" parent="8NLefJ6BLpWgVJT6n-Gh-1" vertex="1">
          <mxGeometry x="660" y="-1054.5" width="178" height="70" as="geometry" />
        </mxCell>
        <mxCell id="c7gvhUzmTRlmYSLFG80D-0" value="" style="rounded=0;whiteSpace=wrap;html=1;fillColor=#f5f5f5;fontStyle=5;verticalAlign=middle;strokeColor=#000000;fillOpacity=50;strokeWidth=5;fontFamily=Times New Roman;fontSize=25;align=left;fontColor=#333333;" parent="8NLefJ6BLpWgVJT6n-Gh-1" vertex="1">
          <mxGeometry x="10" y="-587" width="50" height="25" as="geometry" />
        </mxCell>
        <mxCell id="c7gvhUzmTRlmYSLFG80D-2" value="Application" style="text;html=1;align=center;verticalAlign=middle;resizable=0;points=[];autosize=1;strokeColor=none;fillColor=none;fontSize=22;" parent="8NLefJ6BLpWgVJT6n-Gh-1" vertex="1">
          <mxGeometry x="95" y="-589.5" width="120" height="30" as="geometry" />
        </mxCell>
        <mxCell id="c7gvhUzmTRlmYSLFG80D-4" value="" style="rounded=1;whiteSpace=wrap;html=1;verticalAlign=middle;labelBackgroundColor=none;fillColor=none;arcSize=40;" parent="8NLefJ6BLpWgVJT6n-Gh-1" vertex="1">
          <mxGeometry x="422.09000000000003" y="-587" width="50" height="25" as="geometry" />
        </mxCell>
        <mxCell id="c7gvhUzmTRlmYSLFG80D-9" value="Algorithm" style="text;html=1;align=center;verticalAlign=middle;resizable=0;points=[];autosize=1;strokeColor=none;fillColor=none;fontSize=22;" parent="8NLefJ6BLpWgVJT6n-Gh-1" vertex="1">
          <mxGeometry x="511.09000000000003" y="-589.5" width="110" height="30" as="geometry" />
        </mxCell>
        <mxCell id="c7gvhUzmTRlmYSLFG80D-11" value="&lt;span style=&quot;font-family: &amp;quot;times new roman&amp;quot;; font-size: 20px; font-style: italic;&quot;&gt;Italic&lt;/span&gt;" style="text;html=1;align=center;verticalAlign=middle;resizable=0;points=[];autosize=1;strokeColor=none;fillColor=none;fontSize=20;" parent="8NLefJ6BLpWgVJT6n-Gh-1" vertex="1">
          <mxGeometry x="790.13" y="-589.5" width="60" height="30" as="geometry" />
        </mxCell>
        <mxCell id="c7gvhUzmTRlmYSLFG80D-13" value="Protocol name" style="text;html=1;align=center;verticalAlign=middle;resizable=0;points=[];autosize=1;strokeColor=none;fillColor=none;fontSize=22;" parent="8NLefJ6BLpWgVJT6n-Gh-1" vertex="1">
          <mxGeometry x="860" y="-589.5" width="160" height="30" as="geometry" />
        </mxCell>
        <mxCell id="5AJLgT4qG1FZ-xZsZpFb-0" value="1inch" style="text;html=1;align=center;verticalAlign=middle;resizable=0;points=[];autosize=1;strokeColor=none;fillColor=none;fontColor=#000000;fontStyle=2;fontFamily=Times New Roman;fontSize=20;" parent="8NLefJ6BLpWgVJT6n-Gh-1" vertex="1">
          <mxGeometry x="354.00338983050847" y="-1060" width="60" height="30" as="geometry" />
        </mxCell>
      </root>
    </mxGraphModel>
  </diagram>
  <diagram id="Gz0Cfk2Hy_LupTIM6uKj" name="Initial scheme">
    <mxGraphModel dx="795" dy="479" grid="1" gridSize="10" guides="1" tooltips="1" connect="1" arrows="1" fold="1" page="1" pageScale="1" pageWidth="1100" pageHeight="850" math="1" shadow="0">
      <root>
        <mxCell id="0" />
        <mxCell id="1" parent="0" />
        <mxCell id="o60pH_gIqdKsFOg4dMfI-9" value="&lt;i&gt;&lt;font style=&quot;font-size: 25px&quot;&gt;Core actors&lt;/font&gt;&lt;/i&gt;" style="rounded=0;whiteSpace=wrap;html=1;glass=0;fontFamily=Georgia;dashed=1;verticalAlign=top;flipH=1;" parent="1" vertex="1">
          <mxGeometry x="20" y="270" width="190" height="270" as="geometry" />
        </mxCell>
        <mxCell id="o60pH_gIqdKsFOg4dMfI-10" value="&lt;i&gt;&lt;font style=&quot;font-size: 25px&quot;&gt;User actions&lt;/font&gt;&lt;/i&gt;" style="rounded=0;whiteSpace=wrap;html=1;glass=0;fontFamily=Georgia;dashed=1;verticalAlign=top;flipH=1;" parent="1" vertex="1">
          <mxGeometry x="260" y="180" width="200" height="450" as="geometry" />
        </mxCell>
        <mxCell id="o60pH_gIqdKsFOg4dMfI-11" value="&lt;i&gt;&lt;font style=&quot;font-size: 25px&quot;&gt;Pool state&lt;/font&gt;&lt;/i&gt;" style="rounded=0;whiteSpace=wrap;html=1;glass=0;fontFamily=Georgia;dashed=1;verticalAlign=top;flipH=1;" parent="1" vertex="1">
          <mxGeometry x="560" y="180" width="500" height="450" as="geometry" />
        </mxCell>
        <mxCell id="o60pH_gIqdKsFOg4dMfI-30" style="edgeStyle=orthogonalEdgeStyle;rounded=0;orthogonalLoop=1;jettySize=auto;html=1;exitX=1;exitY=0.5;exitDx=0;exitDy=0;entryX=0;entryY=0.25;entryDx=0;entryDy=0;fontFamily=Georgia;" parent="1" source="o60pH_gIqdKsFOg4dMfI-12" target="o60pH_gIqdKsFOg4dMfI-16" edge="1">
          <mxGeometry relative="1" as="geometry" />
        </mxCell>
        <mxCell id="o60pH_gIqdKsFOg4dMfI-12" value="&lt;font style=&quot;font-size: 20px ; font-weight: normal&quot;&gt;Liquidity pool creator&lt;/font&gt;" style="rounded=0;whiteSpace=wrap;html=1;glass=0;fontFamily=Georgia;fontSize=20;fontStyle=1" parent="1" vertex="1">
          <mxGeometry x="40" y="320" width="140" height="60" as="geometry" />
        </mxCell>
        <mxCell id="o60pH_gIqdKsFOg4dMfI-31" style="edgeStyle=orthogonalEdgeStyle;rounded=0;orthogonalLoop=1;jettySize=auto;html=1;exitX=1;exitY=0.25;exitDx=0;exitDy=0;entryX=0;entryY=0.75;entryDx=0;entryDy=0;fontFamily=Georgia;" parent="1" source="o60pH_gIqdKsFOg4dMfI-13" target="o60pH_gIqdKsFOg4dMfI-16" edge="1">
          <mxGeometry relative="1" as="geometry">
            <Array as="points">
              <mxPoint x="240" y="405" />
              <mxPoint x="240" y="298" />
            </Array>
          </mxGeometry>
        </mxCell>
        <mxCell id="o60pH_gIqdKsFOg4dMfI-32" style="edgeStyle=orthogonalEdgeStyle;rounded=0;orthogonalLoop=1;jettySize=auto;html=1;exitX=1;exitY=0.5;exitDx=0;exitDy=0;entryX=0;entryY=0.5;entryDx=0;entryDy=0;fontFamily=Georgia;" parent="1" source="o60pH_gIqdKsFOg4dMfI-13" target="o60pH_gIqdKsFOg4dMfI-17" edge="1">
          <mxGeometry relative="1" as="geometry">
            <Array as="points">
              <mxPoint x="250" y="420" />
              <mxPoint x="250" y="375" />
            </Array>
          </mxGeometry>
        </mxCell>
        <mxCell id="o60pH_gIqdKsFOg4dMfI-33" style="edgeStyle=orthogonalEdgeStyle;rounded=0;orthogonalLoop=1;jettySize=auto;html=1;exitX=1;exitY=0.75;exitDx=0;exitDy=0;entryX=0;entryY=0.5;entryDx=0;entryDy=0;fontFamily=Georgia;" parent="1" source="o60pH_gIqdKsFOg4dMfI-13" target="o60pH_gIqdKsFOg4dMfI-18" edge="1">
          <mxGeometry relative="1" as="geometry" />
        </mxCell>
        <mxCell id="o60pH_gIqdKsFOg4dMfI-13" value="&lt;font style=&quot;font-size: 20px ; font-weight: normal&quot;&gt;Liquidity provider&lt;/font&gt;" style="rounded=0;whiteSpace=wrap;html=1;glass=0;fontFamily=Georgia;fontStyle=1" parent="1" vertex="1">
          <mxGeometry x="40" y="390" width="140" height="60" as="geometry" />
        </mxCell>
        <mxCell id="o60pH_gIqdKsFOg4dMfI-34" style="edgeStyle=orthogonalEdgeStyle;rounded=0;orthogonalLoop=1;jettySize=auto;html=1;exitX=1;exitY=0.5;exitDx=0;exitDy=0;entryX=0;entryY=0.5;entryDx=0;entryDy=0;fontFamily=Georgia;" parent="1" source="o60pH_gIqdKsFOg4dMfI-15" target="o60pH_gIqdKsFOg4dMfI-19" edge="1">
          <mxGeometry relative="1" as="geometry" />
        </mxCell>
        <mxCell id="o60pH_gIqdKsFOg4dMfI-15" value="&lt;font style=&quot;font-size: 20px ; font-weight: normal&quot;&gt;Exchange user&lt;/font&gt;" style="rounded=0;whiteSpace=wrap;html=1;glass=0;fontFamily=Georgia;fontStyle=1" parent="1" vertex="1">
          <mxGeometry x="40" y="460" width="140" height="60" as="geometry" />
        </mxCell>
        <mxCell id="o60pH_gIqdKsFOg4dMfI-39" value="+" style="edgeStyle=orthogonalEdgeStyle;rounded=0;orthogonalLoop=1;jettySize=auto;html=1;exitX=1;exitY=0.25;exitDx=0;exitDy=0;fontFamily=Georgia;fontStyle=1;fontSize=20;verticalAlign=middle;labelBackgroundColor=none;" parent="1" edge="1">
          <mxGeometry x="-0.5556" y="10" relative="1" as="geometry">
            <mxPoint x="426" y="244" as="sourcePoint" />
            <mxPoint x="581" y="269" as="targetPoint" />
            <Array as="points">
              <mxPoint x="426" y="269" />
            </Array>
            <mxPoint as="offset" />
          </mxGeometry>
        </mxCell>
        <mxCell id="o60pH_gIqdKsFOg4dMfI-16" value="&lt;font style=&quot;font-size: 20px&quot;&gt;Provide liquidity in all assets (mint LP shares)&lt;/font&gt;" style="rounded=0;whiteSpace=wrap;html=1;glass=0;fontFamily=Georgia;fontSize=18;" parent="1" vertex="1">
          <mxGeometry x="270" y="230" width="160" height="90" as="geometry" />
        </mxCell>
        <mxCell id="o60pH_gIqdKsFOg4dMfI-17" value="&lt;font style=&quot;font-weight: normal ; font-size: 20px&quot;&gt;Provide liquidity in one asset (mint LP shares)&lt;/font&gt;" style="rounded=0;whiteSpace=wrap;html=1;glass=0;fontFamily=Georgia;fontSize=18;fontStyle=1" parent="1" vertex="1">
          <mxGeometry x="270" y="330" width="160" height="90" as="geometry" />
        </mxCell>
        <mxCell id="o60pH_gIqdKsFOg4dMfI-46" style="edgeStyle=orthogonalEdgeStyle;rounded=0;orthogonalLoop=1;jettySize=auto;html=1;exitX=1;exitY=0.5;exitDx=0;exitDy=0;entryX=0;entryY=0.5;entryDx=0;entryDy=0;fontFamily=Georgia;fontSize=20;" parent="1" source="o60pH_gIqdKsFOg4dMfI-18" target="o60pH_gIqdKsFOg4dMfI-20" edge="1">
          <mxGeometry relative="1" as="geometry">
            <Array as="points">
              <mxPoint x="425" y="440" />
              <mxPoint x="470" y="440" />
              <mxPoint x="470" y="310" />
            </Array>
          </mxGeometry>
        </mxCell>
        <mxCell id="o60pH_gIqdKsFOg4dMfI-47" value="-" style="edgeLabel;html=1;align=center;verticalAlign=middle;resizable=0;points=[];fontSize=20;fontFamily=Georgia;labelBackgroundColor=none;" parent="o60pH_gIqdKsFOg4dMfI-46" vertex="1" connectable="0">
          <mxGeometry x="0.06" y="-1" relative="1" as="geometry">
            <mxPoint x="-33" y="93" as="offset" />
          </mxGeometry>
        </mxCell>
        <mxCell id="o60pH_gIqdKsFOg4dMfI-48" style="edgeStyle=orthogonalEdgeStyle;rounded=0;orthogonalLoop=1;jettySize=auto;html=1;exitX=1;exitY=0.75;exitDx=0;exitDy=0;entryX=0;entryY=0.5;entryDx=0;entryDy=0;fontFamily=Georgia;fontSize=20;" parent="1" source="o60pH_gIqdKsFOg4dMfI-18" target="o60pH_gIqdKsFOg4dMfI-26" edge="1">
          <mxGeometry relative="1" as="geometry" />
        </mxCell>
        <mxCell id="o60pH_gIqdKsFOg4dMfI-57" value="-" style="edgeLabel;html=1;align=center;verticalAlign=middle;resizable=0;points=[];fontSize=20;fontFamily=Georgia;fontStyle=0;labelBackgroundColor=none;" parent="o60pH_gIqdKsFOg4dMfI-48" vertex="1" connectable="0">
          <mxGeometry x="0.3" y="1" relative="1" as="geometry">
            <mxPoint x="-83.5" y="-30" as="offset" />
          </mxGeometry>
        </mxCell>
        <mxCell id="o60pH_gIqdKsFOg4dMfI-18" value="&lt;font style=&quot;font-weight: normal ; font-size: 20px&quot;&gt;Withdraw liquidity (redeem LP shares)&lt;/font&gt;" style="rounded=0;whiteSpace=wrap;html=1;glass=0;fontFamily=Georgia;fontSize=18;fontStyle=1" parent="1" vertex="1">
          <mxGeometry x="270" y="430" width="160" height="90" as="geometry" />
        </mxCell>
        <mxCell id="o60pH_gIqdKsFOg4dMfI-19" value="&lt;font style=&quot;font-size: 20px ; font-weight: normal&quot;&gt;Swap&lt;/font&gt;" style="rounded=0;whiteSpace=wrap;html=1;glass=0;fontFamily=Georgia;fontSize=20;fontStyle=1" parent="1" vertex="1">
          <mxGeometry x="270" y="530" width="160" height="90" as="geometry" />
        </mxCell>
        <mxCell id="o60pH_gIqdKsFOg4dMfI-20" value="&lt;font style=&quot;font-size: 22px&quot;&gt;Reserves&lt;/font&gt;" style="rounded=0;whiteSpace=wrap;html=1;glass=0;fontFamily=Georgia;align=left;verticalAlign=top;dashed=1;dashPattern=1 4;" parent="1" vertex="1">
          <mxGeometry x="580" y="220" width="450" height="180" as="geometry" />
        </mxCell>
        <mxCell id="o60pH_gIqdKsFOg4dMfI-22" value="&lt;font style=&quot;font-size: 19px ; font-weight: normal&quot;&gt;Token A&lt;br style=&quot;font-size: 19px&quot;&gt;$$r_1$$&lt;/font&gt;" style="rounded=0;whiteSpace=wrap;html=1;glass=0;fontFamily=Georgia;fontStyle=1;fontSize=19;" parent="1" vertex="1">
          <mxGeometry x="610" y="260" width="130" height="90" as="geometry" />
        </mxCell>
        <mxCell id="o60pH_gIqdKsFOg4dMfI-23" value="&lt;font style=&quot;font-size: 19px ; font-weight: normal&quot;&gt;Token B&lt;br style=&quot;font-size: 19px&quot;&gt;$$r_2$$&lt;/font&gt;" style="rounded=0;whiteSpace=wrap;html=1;glass=0;fontFamily=Georgia;fontStyle=1;fontSize=19;" parent="1" vertex="1">
          <mxGeometry x="750" y="260" width="130" height="90" as="geometry" />
        </mxCell>
        <mxCell id="o60pH_gIqdKsFOg4dMfI-24" value="&lt;font style=&quot;font-size: 19px ; font-weight: normal&quot;&gt;Token C&lt;br style=&quot;font-size: 19px&quot;&gt;$$r_3$$&lt;/font&gt;" style="rounded=0;whiteSpace=wrap;html=1;glass=0;fontFamily=Georgia;fontStyle=1;fontSize=19;" parent="1" vertex="1">
          <mxGeometry x="890" y="260" width="130" height="90" as="geometry" />
        </mxCell>
        <mxCell id="o60pH_gIqdKsFOg4dMfI-25" value="..." style="text;html=1;strokeColor=none;fillColor=none;align=center;verticalAlign=middle;whiteSpace=wrap;rounded=0;glass=0;dashed=1;dashPattern=1 4;fontFamily=Georgia;" parent="1" vertex="1">
          <mxGeometry x="795" y="360" width="40" height="20" as="geometry" />
        </mxCell>
        <mxCell id="o60pH_gIqdKsFOg4dMfI-26" value="&lt;font style=&quot;font-size: 23px ; font-weight: normal&quot;&gt;Liquidity shares&lt;/font&gt;" style="rounded=0;whiteSpace=wrap;html=1;glass=0;fontFamily=Georgia;fontStyle=1;fontSize=23;" parent="1" vertex="1">
          <mxGeometry x="580" y="460" width="450" height="110" as="geometry" />
        </mxCell>
        <mxCell id="o60pH_gIqdKsFOg4dMfI-41" style="edgeStyle=orthogonalEdgeStyle;rounded=0;orthogonalLoop=1;jettySize=auto;html=1;exitX=1;exitY=0.5;exitDx=0;exitDy=0;entryX=0.5;entryY=1;entryDx=0;entryDy=0;fontFamily=Georgia;fontSize=20;" parent="1" source="o60pH_gIqdKsFOg4dMfI-17" target="o60pH_gIqdKsFOg4dMfI-22" edge="1">
          <mxGeometry relative="1" as="geometry">
            <Array as="points">
              <mxPoint x="675" y="360" />
            </Array>
          </mxGeometry>
        </mxCell>
        <mxCell id="o60pH_gIqdKsFOg4dMfI-42" value="+" style="edgeLabel;html=1;align=right;verticalAlign=middle;resizable=0;points=[];fontSize=20;fontFamily=Georgia;fontStyle=1;labelBackgroundColor=none;" parent="o60pH_gIqdKsFOg4dMfI-41" vertex="1" connectable="0">
          <mxGeometry x="0.1043" y="-2" relative="1" as="geometry">
            <mxPoint x="-115" y="-14" as="offset" />
          </mxGeometry>
        </mxCell>
        <mxCell id="o60pH_gIqdKsFOg4dMfI-43" value="+" style="edgeStyle=orthogonalEdgeStyle;rounded=0;orthogonalLoop=1;jettySize=auto;html=1;fontFamily=Georgia;fontSize=20;fontStyle=1;labelBackgroundColor=none;entryX=0.5;entryY=0;entryDx=0;entryDy=0;" parent="1" edge="1">
          <mxGeometry x="-0.9562" y="-10" relative="1" as="geometry">
            <mxPoint x="430" y="380" as="sourcePoint" />
            <mxPoint x="806.3000000000001" y="460" as="targetPoint" />
            <Array as="points">
              <mxPoint x="430.3" y="380" />
              <mxPoint x="806.3" y="380" />
            </Array>
            <mxPoint as="offset" />
          </mxGeometry>
        </mxCell>
        <mxCell id="o60pH_gIqdKsFOg4dMfI-52" style="edgeStyle=orthogonalEdgeStyle;rounded=0;orthogonalLoop=1;jettySize=auto;html=1;exitX=1;exitY=0.25;exitDx=0;exitDy=0;entryX=0.25;entryY=1;entryDx=0;entryDy=0;fontFamily=Georgia;fontSize=20;" parent="1" source="o60pH_gIqdKsFOg4dMfI-19" target="o60pH_gIqdKsFOg4dMfI-23" edge="1">
          <mxGeometry relative="1" as="geometry">
            <Array as="points">
              <mxPoint x="480" y="535" />
              <mxPoint x="480" y="410" />
              <mxPoint x="783" y="410" />
            </Array>
          </mxGeometry>
        </mxCell>
        <mxCell id="o60pH_gIqdKsFOg4dMfI-53" value="-" style="edgeLabel;html=1;align=center;verticalAlign=middle;resizable=0;points=[];fontSize=20;fontFamily=Georgia;labelBackgroundColor=none;" parent="o60pH_gIqdKsFOg4dMfI-52" vertex="1" connectable="0">
          <mxGeometry x="0.2814" y="-2" relative="1" as="geometry">
            <mxPoint x="-203" y="128" as="offset" />
          </mxGeometry>
        </mxCell>
        <mxCell id="o60pH_gIqdKsFOg4dMfI-54" style="edgeStyle=orthogonalEdgeStyle;rounded=0;orthogonalLoop=1;jettySize=auto;html=1;exitX=1;exitY=0.75;exitDx=0;exitDy=0;entryX=0.5;entryY=1;entryDx=0;entryDy=0;fontFamily=Georgia;fontSize=20;" parent="1" source="o60pH_gIqdKsFOg4dMfI-19" target="o60pH_gIqdKsFOg4dMfI-24" edge="1">
          <mxGeometry relative="1" as="geometry">
            <Array as="points">
              <mxPoint x="1050" y="598" />
              <mxPoint x="1050" y="370" />
              <mxPoint x="955" y="370" />
            </Array>
          </mxGeometry>
        </mxCell>
        <mxCell id="o60pH_gIqdKsFOg4dMfI-56" value="+" style="edgeLabel;html=1;align=center;verticalAlign=middle;resizable=0;points=[];fontSize=20;fontFamily=Georgia;fontStyle=1;labelBackgroundColor=none;" parent="o60pH_gIqdKsFOg4dMfI-54" vertex="1" connectable="0">
          <mxGeometry x="-0.09" y="1" relative="1" as="geometry">
            <mxPoint x="-425.5" y="-12" as="offset" />
          </mxGeometry>
        </mxCell>
      </root>
    </mxGraphModel>
  </diagram>
  <diagram name="SimplifiedScheme" id="d_9agxrW86omBDYF9K5D">
    <mxGraphModel dx="946" dy="650" grid="1" gridSize="10" guides="1" tooltips="1" connect="1" arrows="1" fold="1" page="1" pageScale="1" pageWidth="1100" pageHeight="850" math="1" shadow="0">
      <root>
        <mxCell id="f8-Kdo4v5M6tRJ11duCn-0" />
        <mxCell id="f8-Kdo4v5M6tRJ11duCn-1" parent="f8-Kdo4v5M6tRJ11duCn-0" />
        <mxCell id="f8-Kdo4v5M6tRJ11duCn-3" value="&lt;i&gt;&lt;font style=&quot;font-size: 25px&quot;&gt;User actions&lt;/font&gt;&lt;/i&gt;" style="rounded=0;whiteSpace=wrap;html=1;glass=0;fontFamily=Georgia;dashed=1;verticalAlign=top;flipH=1;labelBackgroundColor=none;" parent="f8-Kdo4v5M6tRJ11duCn-1" vertex="1">
          <mxGeometry x="260" y="180" width="200" height="450" as="geometry" />
        </mxCell>
        <mxCell id="f8-Kdo4v5M6tRJ11duCn-4" value="&lt;i&gt;&lt;font style=&quot;font-size: 25px&quot;&gt;Pool state&lt;/font&gt;&lt;/i&gt;" style="rounded=0;whiteSpace=wrap;html=1;glass=0;fontFamily=Georgia;dashed=1;verticalAlign=top;flipH=1;labelBackgroundColor=none;" parent="f8-Kdo4v5M6tRJ11duCn-1" vertex="1">
          <mxGeometry x="560" y="180" width="500" height="450" as="geometry" />
        </mxCell>
        <mxCell id="-L7T8TxmEZr88Ak-Jmaz-0" style="edgeStyle=orthogonalEdgeStyle;rounded=0;orthogonalLoop=1;jettySize=auto;html=1;exitX=1;exitY=0.25;exitDx=0;exitDy=0;entryX=0;entryY=0.25;entryDx=0;entryDy=0;labelBackgroundColor=none;" parent="f8-Kdo4v5M6tRJ11duCn-1" source="f8-Kdo4v5M6tRJ11duCn-14" target="f8-Kdo4v5M6tRJ11duCn-22" edge="1">
          <mxGeometry relative="1" as="geometry" />
        </mxCell>
        <mxCell id="f8-Kdo4v5M6tRJ11duCn-14" value="&lt;font style=&quot;font-size: 20px&quot;&gt;Provide liquidity (mint LP shares)&lt;/font&gt;" style="rounded=0;whiteSpace=wrap;html=1;glass=0;fontFamily=Georgia;fontSize=18;labelBackgroundColor=none;" parent="f8-Kdo4v5M6tRJ11duCn-1" vertex="1">
          <mxGeometry x="270" y="230" width="176" height="90" as="geometry" />
        </mxCell>
        <mxCell id="f8-Kdo4v5M6tRJ11duCn-20" value="&lt;font style=&quot;font-weight: normal ; font-size: 20px&quot;&gt;Withdraw liquidity (redeem LP shares)&lt;/font&gt;" style="rounded=0;whiteSpace=wrap;html=1;glass=0;fontFamily=Georgia;fontSize=18;fontStyle=1;labelBackgroundColor=none;" parent="f8-Kdo4v5M6tRJ11duCn-1" vertex="1">
          <mxGeometry x="270" y="340" width="176" height="90" as="geometry" />
        </mxCell>
        <mxCell id="f8-Kdo4v5M6tRJ11duCn-21" value="&lt;font style=&quot;font-size: 20px ; font-weight: normal&quot;&gt;Swap&lt;/font&gt;" style="rounded=0;whiteSpace=wrap;html=1;glass=0;fontFamily=Georgia;fontSize=20;fontStyle=1;labelBackgroundColor=none;" parent="f8-Kdo4v5M6tRJ11duCn-1" vertex="1">
          <mxGeometry x="270" y="530" width="176" height="90" as="geometry" />
        </mxCell>
        <mxCell id="f8-Kdo4v5M6tRJ11duCn-2" value="&lt;i&gt;&lt;font style=&quot;font-size: 25px&quot;&gt;Core actors&lt;/font&gt;&lt;/i&gt;" style="rounded=0;whiteSpace=wrap;html=1;glass=0;fontFamily=Georgia;dashed=1;verticalAlign=top;flipH=1;labelBackgroundColor=none;" parent="f8-Kdo4v5M6tRJ11duCn-1" vertex="1">
          <mxGeometry x="20" y="270" width="190" height="270" as="geometry" />
        </mxCell>
        <mxCell id="f8-Kdo4v5M6tRJ11duCn-7" style="edgeStyle=orthogonalEdgeStyle;rounded=0;orthogonalLoop=1;jettySize=auto;html=1;exitX=1;exitY=0.25;exitDx=0;exitDy=0;entryX=0;entryY=0.75;entryDx=0;entryDy=0;fontFamily=Georgia;labelBackgroundColor=none;" parent="f8-Kdo4v5M6tRJ11duCn-1" source="f8-Kdo4v5M6tRJ11duCn-10" target="f8-Kdo4v5M6tRJ11duCn-14" edge="1">
          <mxGeometry relative="1" as="geometry">
            <Array as="points">
              <mxPoint x="240" y="335" />
              <mxPoint x="240" y="298" />
            </Array>
          </mxGeometry>
        </mxCell>
        <mxCell id="f8-Kdo4v5M6tRJ11duCn-9" style="edgeStyle=orthogonalEdgeStyle;rounded=0;orthogonalLoop=1;jettySize=auto;html=1;exitX=1;exitY=0.75;exitDx=0;exitDy=0;entryX=0;entryY=0.5;entryDx=0;entryDy=0;fontFamily=Georgia;labelBackgroundColor=none;" parent="f8-Kdo4v5M6tRJ11duCn-1" source="f8-Kdo4v5M6tRJ11duCn-10" target="f8-Kdo4v5M6tRJ11duCn-20" edge="1">
          <mxGeometry relative="1" as="geometry" />
        </mxCell>
        <mxCell id="f8-Kdo4v5M6tRJ11duCn-10" value="&lt;font style=&quot;font-size: 20px ; font-weight: normal&quot;&gt;Liquidity provider&lt;/font&gt;" style="rounded=0;whiteSpace=wrap;html=1;glass=0;fontFamily=Georgia;fontStyle=1;labelBackgroundColor=none;" parent="f8-Kdo4v5M6tRJ11duCn-1" vertex="1">
          <mxGeometry x="40" y="320" width="140" height="60" as="geometry" />
        </mxCell>
        <mxCell id="f8-Kdo4v5M6tRJ11duCn-11" style="edgeStyle=orthogonalEdgeStyle;rounded=0;orthogonalLoop=1;jettySize=auto;html=1;exitX=1;exitY=0.5;exitDx=0;exitDy=0;entryX=0;entryY=0.5;entryDx=0;entryDy=0;fontFamily=Georgia;labelBackgroundColor=none;" parent="f8-Kdo4v5M6tRJ11duCn-1" source="f8-Kdo4v5M6tRJ11duCn-12" target="f8-Kdo4v5M6tRJ11duCn-21" edge="1">
          <mxGeometry relative="1" as="geometry" />
        </mxCell>
        <mxCell id="f8-Kdo4v5M6tRJ11duCn-12" value="&lt;font style=&quot;font-size: 20px ; font-weight: normal&quot;&gt;Exchange user&lt;/font&gt;" style="rounded=0;whiteSpace=wrap;html=1;glass=0;fontFamily=Georgia;fontStyle=1;labelBackgroundColor=none;" parent="f8-Kdo4v5M6tRJ11duCn-1" vertex="1">
          <mxGeometry x="40" y="460" width="140" height="60" as="geometry" />
        </mxCell>
        <mxCell id="f8-Kdo4v5M6tRJ11duCn-16" style="edgeStyle=orthogonalEdgeStyle;rounded=0;orthogonalLoop=1;jettySize=auto;html=1;exitX=1;exitY=0.5;exitDx=0;exitDy=0;fontFamily=Georgia;fontSize=20;labelBackgroundColor=none;" parent="f8-Kdo4v5M6tRJ11duCn-1" source="f8-Kdo4v5M6tRJ11duCn-20" target="f8-Kdo4v5M6tRJ11duCn-22" edge="1">
          <mxGeometry relative="1" as="geometry">
            <Array as="points">
              <mxPoint x="500" y="385" />
              <mxPoint x="500" y="330" />
            </Array>
            <mxPoint x="570" y="330" as="targetPoint" />
          </mxGeometry>
        </mxCell>
        <mxCell id="f8-Kdo4v5M6tRJ11duCn-17" value="-" style="edgeLabel;html=1;align=center;verticalAlign=middle;resizable=0;points=[];fontSize=20;fontFamily=Georgia;labelBackgroundColor=none;" parent="f8-Kdo4v5M6tRJ11duCn-16" vertex="1" connectable="0">
          <mxGeometry x="0.06" y="-1" relative="1" as="geometry">
            <mxPoint x="-31" y="31" as="offset" />
          </mxGeometry>
        </mxCell>
        <mxCell id="f8-Kdo4v5M6tRJ11duCn-18" style="edgeStyle=orthogonalEdgeStyle;rounded=0;orthogonalLoop=1;jettySize=auto;html=1;exitX=1;exitY=0.75;exitDx=0;exitDy=0;entryX=0;entryY=0.5;entryDx=0;entryDy=0;fontFamily=Georgia;fontSize=20;labelBackgroundColor=none;" parent="f8-Kdo4v5M6tRJ11duCn-1" source="f8-Kdo4v5M6tRJ11duCn-20" target="f8-Kdo4v5M6tRJ11duCn-27" edge="1">
          <mxGeometry relative="1" as="geometry">
            <Array as="points">
              <mxPoint x="490" y="408" />
              <mxPoint x="490" y="515" />
            </Array>
          </mxGeometry>
        </mxCell>
        <mxCell id="f8-Kdo4v5M6tRJ11duCn-19" value="-" style="edgeLabel;html=1;align=center;verticalAlign=middle;resizable=0;points=[];fontSize=20;fontFamily=Georgia;fontStyle=0;labelBackgroundColor=none;" parent="f8-Kdo4v5M6tRJ11duCn-18" vertex="1" connectable="0">
          <mxGeometry x="0.3" y="1" relative="1" as="geometry">
            <mxPoint x="-25" y="-94" as="offset" />
          </mxGeometry>
        </mxCell>
        <mxCell id="f8-Kdo4v5M6tRJ11duCn-22" value="&lt;font style=&quot;font-size: 22px&quot;&gt;Reserves&lt;/font&gt;" style="rounded=0;whiteSpace=wrap;html=1;glass=0;fontFamily=Georgia;align=left;verticalAlign=top;dashed=1;dashPattern=1 4;labelBackgroundColor=none;" parent="f8-Kdo4v5M6tRJ11duCn-1" vertex="1">
          <mxGeometry x="580" y="220" width="450" height="180" as="geometry" />
        </mxCell>
        <mxCell id="f8-Kdo4v5M6tRJ11duCn-23" value="&lt;font style=&quot;font-size: 19px ; font-weight: normal&quot;&gt;Token&lt;sub&gt;1&lt;/sub&gt;&lt;br style=&quot;font-size: 19px&quot;&gt;$$r_1$$&lt;/font&gt;" style="rounded=0;whiteSpace=wrap;html=1;glass=0;fontFamily=Georgia;fontStyle=1;fontSize=19;labelBackgroundColor=none;" parent="f8-Kdo4v5M6tRJ11duCn-1" vertex="1">
          <mxGeometry x="610" y="260" width="130" height="90" as="geometry" />
        </mxCell>
        <mxCell id="f8-Kdo4v5M6tRJ11duCn-24" value="&lt;font style=&quot;font-size: 19px ; font-weight: normal&quot;&gt;Token&lt;sub&gt;2&lt;/sub&gt;&lt;br style=&quot;font-size: 19px&quot;&gt;$$r_2$$&lt;/font&gt;" style="rounded=0;whiteSpace=wrap;html=1;glass=0;fontFamily=Georgia;fontStyle=1;fontSize=19;labelBackgroundColor=none;" parent="f8-Kdo4v5M6tRJ11duCn-1" vertex="1">
          <mxGeometry x="750" y="260" width="130" height="90" as="geometry" />
        </mxCell>
        <mxCell id="f8-Kdo4v5M6tRJ11duCn-25" value="&lt;font style=&quot;font-size: 19px ; font-weight: normal&quot;&gt;Token&lt;sub&gt;3&lt;/sub&gt;&lt;br style=&quot;font-size: 19px&quot;&gt;$$r_3$$&lt;/font&gt;" style="rounded=0;whiteSpace=wrap;html=1;glass=0;fontFamily=Georgia;fontStyle=1;fontSize=19;labelBackgroundColor=none;" parent="f8-Kdo4v5M6tRJ11duCn-1" vertex="1">
          <mxGeometry x="890" y="260" width="130" height="90" as="geometry" />
        </mxCell>
        <mxCell id="f8-Kdo4v5M6tRJ11duCn-26" value="..." style="text;html=1;strokeColor=none;fillColor=none;align=center;verticalAlign=middle;whiteSpace=wrap;rounded=0;glass=0;dashed=1;dashPattern=1 4;fontFamily=Georgia;labelBackgroundColor=none;" parent="f8-Kdo4v5M6tRJ11duCn-1" vertex="1">
          <mxGeometry x="795" y="360" width="40" height="20" as="geometry" />
        </mxCell>
        <mxCell id="f8-Kdo4v5M6tRJ11duCn-27" value="&lt;font style=&quot;font-size: 23px ; font-weight: normal&quot;&gt;LP shares&lt;/font&gt;" style="rounded=0;whiteSpace=wrap;html=1;glass=0;fontFamily=Georgia;fontStyle=1;fontSize=23;labelBackgroundColor=none;" parent="f8-Kdo4v5M6tRJ11duCn-1" vertex="1">
          <mxGeometry x="580" y="460" width="450" height="110" as="geometry" />
        </mxCell>
        <mxCell id="f8-Kdo4v5M6tRJ11duCn-31" style="edgeStyle=orthogonalEdgeStyle;rounded=0;orthogonalLoop=1;jettySize=auto;html=1;exitX=1;exitY=0.25;exitDx=0;exitDy=0;entryX=0.25;entryY=1;entryDx=0;entryDy=0;fontFamily=Georgia;fontSize=20;labelBackgroundColor=none;" parent="f8-Kdo4v5M6tRJ11duCn-1" source="f8-Kdo4v5M6tRJ11duCn-21" target="f8-Kdo4v5M6tRJ11duCn-24" edge="1">
          <mxGeometry relative="1" as="geometry">
            <Array as="points">
              <mxPoint x="540" y="553" />
              <mxPoint x="540" y="410" />
              <mxPoint x="783" y="410" />
            </Array>
          </mxGeometry>
        </mxCell>
        <mxCell id="f8-Kdo4v5M6tRJ11duCn-32" value="-" style="edgeLabel;html=1;align=center;verticalAlign=middle;resizable=0;points=[];fontSize=20;fontFamily=Georgia;labelBackgroundColor=none;" parent="f8-Kdo4v5M6tRJ11duCn-31" vertex="1" connectable="0">
          <mxGeometry x="0.2814" y="-2" relative="1" as="geometry">
            <mxPoint x="-179" y="128" as="offset" />
          </mxGeometry>
        </mxCell>
        <mxCell id="f8-Kdo4v5M6tRJ11duCn-33" style="edgeStyle=orthogonalEdgeStyle;rounded=0;orthogonalLoop=1;jettySize=auto;html=1;exitX=1;exitY=0.75;exitDx=0;exitDy=0;entryX=0.5;entryY=1;entryDx=0;entryDy=0;fontFamily=Georgia;fontSize=20;labelBackgroundColor=none;" parent="f8-Kdo4v5M6tRJ11duCn-1" source="f8-Kdo4v5M6tRJ11duCn-21" target="f8-Kdo4v5M6tRJ11duCn-25" edge="1">
          <mxGeometry relative="1" as="geometry">
            <Array as="points">
              <mxPoint x="1050" y="598" />
              <mxPoint x="1050" y="370" />
              <mxPoint x="955" y="370" />
            </Array>
          </mxGeometry>
        </mxCell>
        <mxCell id="f8-Kdo4v5M6tRJ11duCn-34" value="+" style="edgeLabel;html=1;align=center;verticalAlign=middle;resizable=0;points=[];fontSize=20;fontFamily=Georgia;fontStyle=1;labelBackgroundColor=none;" parent="f8-Kdo4v5M6tRJ11duCn-33" vertex="1" connectable="0">
          <mxGeometry x="-0.09" y="1" relative="1" as="geometry">
            <mxPoint x="-407" y="-12" as="offset" />
          </mxGeometry>
        </mxCell>
        <mxCell id="f8-Kdo4v5M6tRJ11duCn-35" style="edgeStyle=orthogonalEdgeStyle;rounded=0;orthogonalLoop=1;jettySize=auto;html=1;exitX=1;exitY=0.75;exitDx=0;exitDy=0;entryX=0;entryY=0.25;entryDx=0;entryDy=0;fontFamily=Georgia;fontSize=20;labelBackgroundColor=none;" parent="f8-Kdo4v5M6tRJ11duCn-1" source="f8-Kdo4v5M6tRJ11duCn-14" target="f8-Kdo4v5M6tRJ11duCn-27" edge="1">
          <mxGeometry relative="1" as="geometry">
            <mxPoint x="440" y="417.5" as="sourcePoint" />
            <mxPoint x="590" y="525" as="targetPoint" />
          </mxGeometry>
        </mxCell>
        <mxCell id="f8-Kdo4v5M6tRJ11duCn-37" value="&lt;b&gt;+&lt;/b&gt;" style="edgeLabel;html=1;align=center;verticalAlign=middle;resizable=0;points=[];fontSize=20;fontFamily=Georgia;labelBackgroundColor=none;" parent="f8-Kdo4v5M6tRJ11duCn-1" vertex="1" connectable="0">
          <mxGeometry x="490" y="260" as="geometry">
            <mxPoint x="-15" y="-22" as="offset" />
          </mxGeometry>
        </mxCell>
        <mxCell id="-L7T8TxmEZr88Ak-Jmaz-2" value="&lt;b&gt;+&lt;/b&gt;" style="edgeLabel;html=1;align=center;verticalAlign=middle;resizable=0;points=[];fontSize=20;fontFamily=Georgia;labelBackgroundColor=none;" parent="f8-Kdo4v5M6tRJ11duCn-1" vertex="1" connectable="0">
          <mxGeometry x="490" y="305" as="geometry">
            <mxPoint x="-15" y="-22" as="offset" />
          </mxGeometry>
        </mxCell>
      </root>
    </mxGraphModel>
  </diagram>
  <diagram id="GEQpAldpkpGD7Rz18Gax" name="security">
    <mxGraphModel dx="946" dy="618" grid="1" gridSize="10" guides="1" tooltips="1" connect="1" arrows="1" fold="1" page="1" pageScale="1" pageWidth="827" pageHeight="1169" math="0" shadow="0">
      <root>
        <mxCell id="EXGlup8Ojjp6KNx8XwXa-0" />
        <mxCell id="EXGlup8Ojjp6KNx8XwXa-1" parent="EXGlup8Ojjp6KNx8XwXa-0" />
        <mxCell id="mFuL-gZ3IuL4Wt8d_JvN-23" style="edgeStyle=orthogonalEdgeStyle;rounded=0;orthogonalLoop=1;jettySize=auto;html=1;entryX=0;entryY=0.5;entryDx=0;entryDy=0;labelBackgroundColor=none;exitX=0.006;exitY=0.567;exitDx=0;exitDy=0;exitPerimeter=0;" parent="EXGlup8Ojjp6KNx8XwXa-1" source="mFuL-gZ3IuL4Wt8d_JvN-7" target="mFuL-gZ3IuL4Wt8d_JvN-10" edge="1">
          <mxGeometry relative="1" as="geometry">
            <Array as="points">
              <mxPoint x="70" y="490" />
              <mxPoint x="70" y="568" />
            </Array>
            <mxPoint x="88" y="490" as="sourcePoint" />
          </mxGeometry>
        </mxCell>
        <mxCell id="mFuL-gZ3IuL4Wt8d_JvN-7" value="Implicit economic risks" style="rounded=1;whiteSpace=wrap;html=1;shadow=0;labelBackgroundColor=none;strokeWidth=3;fontFamily=Helvetica;fontSize=16;align=center;spacing=5;fontStyle=5;arcSize=7;perimeterSpacing=2;fillColor=#f5f5f5;strokeColor=#666666;fontColor=#333333;" parent="EXGlup8Ojjp6KNx8XwXa-1" vertex="1">
          <mxGeometry x="90" y="460" width="150" height="45" as="geometry" />
        </mxCell>
        <mxCell id="mFuL-gZ3IuL4Wt8d_JvN-9" value="Divergence loss" style="rounded=1;whiteSpace=wrap;html=1;shadow=0;labelBackgroundColor=none;strokeWidth=3;fontFamily=Helvetica;fontSize=16;align=center;spacing=5;fontStyle=0;arcSize=7;perimeterSpacing=2;fillColor=#b0e3e6;strokeColor=#0e8088;" parent="EXGlup8Ojjp6KNx8XwXa-1" vertex="1">
          <mxGeometry x="90" y="510" width="150" height="35" as="geometry" />
        </mxCell>
        <mxCell id="mFuL-gZ3IuL4Wt8d_JvN-10" value="Slippage" style="rounded=1;whiteSpace=wrap;html=1;shadow=0;labelBackgroundColor=none;strokeWidth=3;fontFamily=Helvetica;fontSize=16;align=center;spacing=5;fontStyle=0;arcSize=7;perimeterSpacing=2;fillColor=#b0e3e6;strokeColor=#0e8088;" parent="EXGlup8Ojjp6KNx8XwXa-1" vertex="1">
          <mxGeometry x="90" y="550" width="150" height="35" as="geometry" />
        </mxCell>
        <mxCell id="mFuL-gZ3IuL4Wt8d_JvN-16" value="Oracle attack" style="rounded=1;whiteSpace=wrap;html=1;shadow=0;labelBackgroundColor=none;strokeWidth=1;fontFamily=Helvetica;fontSize=13;align=center;spacing=5;arcSize=7;perimeterSpacing=2;fillColor=#fff2cc;strokeColor=#d6b656;fontStyle=2" parent="EXGlup8Ojjp6KNx8XwXa-1" vertex="1">
          <mxGeometry x="90" y="690" width="150" height="35" as="geometry" />
        </mxCell>
        <mxCell id="mFuL-gZ3IuL4Wt8d_JvN-17" value="Reentrancy attacks" style="rounded=1;whiteSpace=wrap;html=1;shadow=0;labelBackgroundColor=none;strokeWidth=1;fontFamily=Helvetica;fontSize=13;align=center;spacing=5;arcSize=7;perimeterSpacing=2;fillColor=#dae8fc;strokeColor=#6c8ebf;fontStyle=2" parent="EXGlup8Ojjp6KNx8XwXa-1" vertex="1">
          <mxGeometry x="490" y="630" width="150" height="35" as="geometry" />
        </mxCell>
        <mxCell id="mFuL-gZ3IuL4Wt8d_JvN-18" value="Privacy concerns" style="rounded=1;whiteSpace=wrap;html=1;shadow=0;labelBackgroundColor=none;strokeWidth=3;fontFamily=Helvetica;fontSize=16;align=center;spacing=5;fontStyle=5;arcSize=7;perimeterSpacing=2;fillColor=#f5f5f5;strokeColor=#666666;fontColor=#333333;" parent="EXGlup8Ojjp6KNx8XwXa-1" vertex="1">
          <mxGeometry x="490" y="460" width="150" height="45" as="geometry" />
        </mxCell>
        <mxCell id="mFuL-gZ3IuL4Wt8d_JvN-27" value="" style="endArrow=classic;html=1;labelBackgroundColor=none;entryX=0;entryY=0.5;entryDx=0;entryDy=0;" parent="EXGlup8Ojjp6KNx8XwXa-1" target="mFuL-gZ3IuL4Wt8d_JvN-9" edge="1">
          <mxGeometry width="50" height="50" relative="1" as="geometry">
            <mxPoint x="70" y="528" as="sourcePoint" />
            <mxPoint x="100" y="800" as="targetPoint" />
          </mxGeometry>
        </mxCell>
        <mxCell id="mFuL-gZ3IuL4Wt8d_JvN-30" style="edgeStyle=orthogonalEdgeStyle;rounded=0;orthogonalLoop=1;jettySize=auto;html=1;exitX=0.011;exitY=0.507;exitDx=0;exitDy=0;entryX=0;entryY=0.5;entryDx=0;entryDy=0;labelBackgroundColor=none;exitPerimeter=0;" parent="EXGlup8Ojjp6KNx8XwXa-1" source="mFuL-gZ3IuL4Wt8d_JvN-31" target="mFuL-gZ3IuL4Wt8d_JvN-33" edge="1">
          <mxGeometry relative="1" as="geometry">
            <Array as="points">
              <mxPoint x="270" y="488" />
              <mxPoint x="270" y="648" />
              <mxPoint x="288" y="648" />
            </Array>
          </mxGeometry>
        </mxCell>
        <mxCell id="mFuL-gZ3IuL4Wt8d_JvN-31" value="Security concerns" style="rounded=1;whiteSpace=wrap;html=1;shadow=0;labelBackgroundColor=none;strokeWidth=3;fontFamily=Helvetica;fontSize=16;align=center;spacing=5;fontStyle=5;arcSize=7;perimeterSpacing=2;fillColor=#f5f5f5;strokeColor=#666666;fontColor=#333333;" parent="EXGlup8Ojjp6KNx8XwXa-1" vertex="1">
          <mxGeometry x="290" y="460" width="150" height="45" as="geometry" />
        </mxCell>
        <mxCell id="mFuL-gZ3IuL4Wt8d_JvN-37" style="edgeStyle=orthogonalEdgeStyle;rounded=0;orthogonalLoop=1;jettySize=auto;html=1;exitX=1;exitY=0.5;exitDx=0;exitDy=0;entryX=0;entryY=0.5;entryDx=0;entryDy=0;labelBackgroundColor=none;" parent="EXGlup8Ojjp6KNx8XwXa-1" source="6iY_d95NOehxsiT4XV8K-0" target="mFuL-gZ3IuL4Wt8d_JvN-17" edge="1">
          <mxGeometry relative="1" as="geometry">
            <Array as="points">
              <mxPoint x="450" y="598" />
              <mxPoint x="450" y="648" />
            </Array>
          </mxGeometry>
        </mxCell>
        <mxCell id="mFuL-gZ3IuL4Wt8d_JvN-32" value="Infrastructure-layer attacks" style="rounded=1;whiteSpace=wrap;html=1;shadow=0;labelBackgroundColor=none;strokeWidth=3;fontFamily=Helvetica;fontSize=16;align=center;spacing=5;fontStyle=0;arcSize=7;perimeterSpacing=2;fillColor=#f8cecc;strokeColor=#b85450;" parent="EXGlup8Ojjp6KNx8XwXa-1" vertex="1">
          <mxGeometry x="290" y="520" width="150" height="35" as="geometry" />
        </mxCell>
        <mxCell id="mFuL-gZ3IuL4Wt8d_JvN-44" style="edgeStyle=orthogonalEdgeStyle;rounded=0;orthogonalLoop=1;jettySize=auto;html=1;exitX=0.5;exitY=1;exitDx=0;exitDy=0;entryX=0.5;entryY=0;entryDx=0;entryDy=0;labelBackgroundColor=none;" parent="EXGlup8Ojjp6KNx8XwXa-1" source="mFuL-gZ3IuL4Wt8d_JvN-33" target="mFuL-gZ3IuL4Wt8d_JvN-16" edge="1">
          <mxGeometry relative="1" as="geometry">
            <Array as="points">
              <mxPoint x="165" y="667" />
            </Array>
          </mxGeometry>
        </mxCell>
        <mxCell id="mFuL-gZ3IuL4Wt8d_JvN-45" style="edgeStyle=orthogonalEdgeStyle;rounded=0;orthogonalLoop=1;jettySize=auto;html=1;exitX=1;exitY=0.5;exitDx=0;exitDy=0;labelBackgroundColor=none;entryX=0;entryY=0.5;entryDx=0;entryDy=0;" parent="EXGlup8Ojjp6KNx8XwXa-1" source="mFuL-gZ3IuL4Wt8d_JvN-32" target="mFuL-gZ3IuL4Wt8d_JvN-39" edge="1">
          <mxGeometry relative="1" as="geometry">
            <Array as="points">
              <mxPoint x="460" y="538" />
              <mxPoint x="460" y="568" />
            </Array>
          </mxGeometry>
        </mxCell>
        <mxCell id="mFuL-gZ3IuL4Wt8d_JvN-46" style="edgeStyle=orthogonalEdgeStyle;rounded=0;orthogonalLoop=1;jettySize=auto;html=1;exitX=1;exitY=0.5;exitDx=0;exitDy=0;entryX=0;entryY=0.5;entryDx=0;entryDy=0;labelBackgroundColor=none;" parent="EXGlup8Ojjp6KNx8XwXa-1" source="mFuL-gZ3IuL4Wt8d_JvN-32" target="mFuL-gZ3IuL4Wt8d_JvN-40" edge="1">
          <mxGeometry relative="1" as="geometry">
            <Array as="points">
              <mxPoint x="460" y="538" />
              <mxPoint x="460" y="608" />
            </Array>
          </mxGeometry>
        </mxCell>
        <mxCell id="mFuL-gZ3IuL4Wt8d_JvN-47" style="edgeStyle=orthogonalEdgeStyle;rounded=0;orthogonalLoop=1;jettySize=auto;html=1;exitX=0.5;exitY=1;exitDx=0;exitDy=0;entryX=0.5;entryY=0;entryDx=0;entryDy=0;labelBackgroundColor=none;" parent="EXGlup8Ojjp6KNx8XwXa-1" source="mFuL-gZ3IuL4Wt8d_JvN-33" target="mFuL-gZ3IuL4Wt8d_JvN-42" edge="1">
          <mxGeometry relative="1" as="geometry">
            <Array as="points">
              <mxPoint x="365" y="680" />
              <mxPoint x="365" y="680" />
            </Array>
          </mxGeometry>
        </mxCell>
        <mxCell id="nRd-64XhVvS_ARxfHXL--4" style="edgeStyle=orthogonalEdgeStyle;rounded=0;orthogonalLoop=1;jettySize=auto;html=1;exitX=0.5;exitY=1;exitDx=0;exitDy=0;" parent="EXGlup8Ojjp6KNx8XwXa-1" source="mFuL-gZ3IuL4Wt8d_JvN-33" target="mFuL-gZ3IuL4Wt8d_JvN-41" edge="1">
          <mxGeometry relative="1" as="geometry">
            <Array as="points">
              <mxPoint x="440" y="667" />
              <mxPoint x="440" y="667" />
            </Array>
          </mxGeometry>
        </mxCell>
        <mxCell id="6E3plj6udAWATuoDIket-2" style="edgeStyle=orthogonalEdgeStyle;rounded=0;orthogonalLoop=1;jettySize=auto;html=1;exitX=0.5;exitY=1;exitDx=0;exitDy=0;entryX=0.987;entryY=0.49;entryDx=0;entryDy=0;entryPerimeter=0;" parent="EXGlup8Ojjp6KNx8XwXa-1" source="mFuL-gZ3IuL4Wt8d_JvN-33" target="mFuL-gZ3IuL4Wt8d_JvN-38" edge="1">
          <mxGeometry relative="1" as="geometry">
            <Array as="points">
              <mxPoint x="250" y="667" />
              <mxPoint x="250" y="747" />
            </Array>
          </mxGeometry>
        </mxCell>
        <mxCell id="6E3plj6udAWATuoDIket-3" style="edgeStyle=orthogonalEdgeStyle;rounded=0;orthogonalLoop=1;jettySize=auto;html=1;exitX=0.5;exitY=1;exitDx=0;exitDy=0;entryX=0.013;entryY=0.513;entryDx=0;entryDy=0;entryPerimeter=0;" parent="EXGlup8Ojjp6KNx8XwXa-1" source="mFuL-gZ3IuL4Wt8d_JvN-33" target="6E3plj6udAWATuoDIket-1" edge="1">
          <mxGeometry relative="1" as="geometry">
            <mxPoint x="478" y="748" as="targetPoint" />
            <Array as="points">
              <mxPoint x="470" y="667" />
              <mxPoint x="470" y="748" />
            </Array>
          </mxGeometry>
        </mxCell>
        <mxCell id="6E3plj6udAWATuoDIket-4" style="edgeStyle=orthogonalEdgeStyle;rounded=0;orthogonalLoop=1;jettySize=auto;html=1;exitX=0.5;exitY=1;exitDx=0;exitDy=0;entryX=1;entryY=0.5;entryDx=0;entryDy=0;" parent="EXGlup8Ojjp6KNx8XwXa-1" source="mFuL-gZ3IuL4Wt8d_JvN-33" target="6E3plj6udAWATuoDIket-0" edge="1">
          <mxGeometry relative="1" as="geometry">
            <Array as="points">
              <mxPoint x="460" y="667" />
              <mxPoint x="460" y="748" />
            </Array>
          </mxGeometry>
        </mxCell>
        <mxCell id="mFuL-gZ3IuL4Wt8d_JvN-33" value="Appliction-layer attacks" style="rounded=1;whiteSpace=wrap;html=1;shadow=0;labelBackgroundColor=none;strokeWidth=3;fontFamily=Helvetica;fontSize=16;align=center;spacing=5;fontStyle=0;arcSize=7;perimeterSpacing=2;fillColor=#fff2cc;strokeColor=#d6b656;" parent="EXGlup8Ojjp6KNx8XwXa-1" vertex="1">
          <mxGeometry x="290" y="630" width="150" height="35" as="geometry" />
        </mxCell>
        <mxCell id="mFuL-gZ3IuL4Wt8d_JvN-34" value="" style="endArrow=classic;html=1;labelBackgroundColor=none;entryX=0;entryY=0.5;entryDx=0;entryDy=0;" parent="EXGlup8Ojjp6KNx8XwXa-1" target="mFuL-gZ3IuL4Wt8d_JvN-32" edge="1">
          <mxGeometry width="50" height="50" relative="1" as="geometry">
            <mxPoint x="270" y="538" as="sourcePoint" />
            <mxPoint x="300" y="800" as="targetPoint" />
          </mxGeometry>
        </mxCell>
        <mxCell id="mFuL-gZ3IuL4Wt8d_JvN-38" value="Frontrunning" style="rounded=1;whiteSpace=wrap;html=1;shadow=0;labelBackgroundColor=none;strokeWidth=1;fontFamily=Helvetica;fontSize=13;align=center;spacing=5;arcSize=7;perimeterSpacing=2;fillColor=#fff2cc;strokeColor=#d6b656;fontStyle=2" parent="EXGlup8Ojjp6KNx8XwXa-1" vertex="1">
          <mxGeometry x="90" y="730" width="150" height="35" as="geometry" />
        </mxCell>
        <mxCell id="mFuL-gZ3IuL4Wt8d_JvN-39" value="Block timestamp&amp;nbsp; &amp;nbsp;manipulation" style="rounded=1;whiteSpace=wrap;html=1;shadow=0;labelBackgroundColor=none;strokeWidth=1;fontFamily=Helvetica;fontSize=13;align=center;spacing=5;arcSize=7;perimeterSpacing=2;fillColor=#f8cecc;strokeColor=#b85450;fontStyle=2" parent="EXGlup8Ojjp6KNx8XwXa-1" vertex="1">
          <mxGeometry x="490" y="550" width="150" height="35" as="geometry" />
        </mxCell>
        <mxCell id="mFuL-gZ3IuL4Wt8d_JvN-40" value="Transaction sequence&amp;nbsp; manipulation" style="rounded=1;whiteSpace=wrap;html=1;shadow=0;labelBackgroundColor=none;strokeWidth=1;fontFamily=Helvetica;fontSize=13;align=center;spacing=5;arcSize=7;perimeterSpacing=2;fillColor=#f8cecc;strokeColor=#b85450;fontStyle=2" parent="EXGlup8Ojjp6KNx8XwXa-1" vertex="1">
          <mxGeometry x="490" y="590" width="150" height="35" as="geometry" />
        </mxCell>
        <mxCell id="mFuL-gZ3IuL4Wt8d_JvN-41" value="Sandwich attack" style="rounded=1;whiteSpace=wrap;html=1;shadow=0;labelBackgroundColor=none;strokeWidth=1;fontFamily=Helvetica;fontSize=13;align=center;spacing=5;arcSize=7;perimeterSpacing=2;fillColor=#fff2cc;strokeColor=#d6b656;fontStyle=2" parent="EXGlup8Ojjp6KNx8XwXa-1" vertex="1">
          <mxGeometry x="480" y="690" width="150" height="35" as="geometry" />
        </mxCell>
        <mxCell id="mFuL-gZ3IuL4Wt8d_JvN-42" value="Rug pull" style="rounded=1;whiteSpace=wrap;html=1;shadow=0;labelBackgroundColor=none;strokeWidth=1;fontFamily=Helvetica;fontSize=13;align=center;spacing=5;arcSize=7;perimeterSpacing=2;fillColor=#fff2cc;strokeColor=#d6b656;fontStyle=2" parent="EXGlup8Ojjp6KNx8XwXa-1" vertex="1">
          <mxGeometry x="290" y="690" width="150" height="35" as="geometry" />
        </mxCell>
        <mxCell id="6iY_d95NOehxsiT4XV8K-0" value="Middleware-layer attacks" style="rounded=1;whiteSpace=wrap;html=1;shadow=0;labelBackgroundColor=none;strokeWidth=3;fontFamily=Helvetica;fontSize=16;align=center;spacing=5;fontStyle=0;arcSize=7;perimeterSpacing=2;fillColor=#dae8fc;strokeColor=#6c8ebf;" parent="EXGlup8Ojjp6KNx8XwXa-1" vertex="1">
          <mxGeometry x="290" y="580" width="150" height="35" as="geometry" />
        </mxCell>
        <mxCell id="6iY_d95NOehxsiT4XV8K-1" value="" style="endArrow=classic;html=1;labelBackgroundColor=none;entryX=0;entryY=0.5;entryDx=0;entryDy=0;" parent="EXGlup8Ojjp6KNx8XwXa-1" target="6iY_d95NOehxsiT4XV8K-0" edge="1">
          <mxGeometry width="50" height="50" relative="1" as="geometry">
            <mxPoint x="270" y="598" as="sourcePoint" />
            <mxPoint x="298" y="600" as="targetPoint" />
          </mxGeometry>
        </mxCell>
        <mxCell id="nRd-64XhVvS_ARxfHXL--6" value="Behavior inference" style="rounded=1;whiteSpace=wrap;html=1;shadow=0;labelBackgroundColor=none;strokeWidth=3;fontFamily=Helvetica;fontSize=16;align=center;spacing=5;arcSize=7;perimeterSpacing=2;fillColor=#e1d5e7;strokeColor=#9673a6;" parent="EXGlup8Ojjp6KNx8XwXa-1" vertex="1">
          <mxGeometry x="490" y="510" width="150" height="35" as="geometry" />
        </mxCell>
        <mxCell id="lccUrFiPzws3Ih7DW5O9-0" style="edgeStyle=orthogonalEdgeStyle;rounded=0;orthogonalLoop=1;jettySize=auto;html=1;exitX=0.019;exitY=0.488;exitDx=0;exitDy=0;labelBackgroundColor=none;exitPerimeter=0;entryX=0;entryY=0.5;entryDx=0;entryDy=0;" parent="EXGlup8Ojjp6KNx8XwXa-1" source="mFuL-gZ3IuL4Wt8d_JvN-18" target="nRd-64XhVvS_ARxfHXL--6" edge="1">
          <mxGeometry relative="1" as="geometry">
            <Array as="points">
              <mxPoint x="470" y="487" />
              <mxPoint x="470" y="528" />
            </Array>
            <mxPoint x="490" y="500" as="sourcePoint" />
            <mxPoint x="490" y="568.3333333333334" as="targetPoint" />
          </mxGeometry>
        </mxCell>
        <mxCell id="6E3plj6udAWATuoDIket-0" value="Backrunning" style="rounded=1;whiteSpace=wrap;html=1;shadow=0;labelBackgroundColor=none;strokeWidth=1;fontFamily=Helvetica;fontSize=13;align=center;spacing=5;arcSize=7;perimeterSpacing=2;fillColor=#fff2cc;strokeColor=#d6b656;fontStyle=2" parent="EXGlup8Ojjp6KNx8XwXa-1" vertex="1">
          <mxGeometry x="290" y="730" width="150" height="35" as="geometry" />
        </mxCell>
        <mxCell id="6E3plj6udAWATuoDIket-1" value="Vampire attack" style="rounded=1;whiteSpace=wrap;html=1;shadow=0;labelBackgroundColor=none;strokeWidth=1;fontFamily=Helvetica;fontSize=13;align=center;spacing=5;arcSize=7;perimeterSpacing=2;fillColor=#fff2cc;strokeColor=#d6b656;fontStyle=2" parent="EXGlup8Ojjp6KNx8XwXa-1" vertex="1">
          <mxGeometry x="480" y="730" width="150" height="35" as="geometry" />
        </mxCell>
      </root>
    </mxGraphModel>
  </diagram>
  <diagram id="KmgixyK5KnBJk-1qa-T7" name="security_old">
    <mxGraphModel dx="946" dy="496" grid="1" gridSize="10" guides="1" tooltips="1" connect="1" arrows="1" fold="1" page="1" pageScale="1" pageWidth="827" pageHeight="1169" math="0" shadow="0">
      <root>
        <mxCell id="YGjA9PhLy6F1NZ8P3_q6-0" />
        <mxCell id="YGjA9PhLy6F1NZ8P3_q6-1" parent="YGjA9PhLy6F1NZ8P3_q6-0" />
        <mxCell id="299lqJNVyr8fBAvR65Sl-0" value="" style="edgeStyle=none;rounded=0;jumpStyle=none;html=1;shadow=0;labelBackgroundColor=none;startArrow=none;startFill=0;endArrow=classic;endFill=1;jettySize=auto;orthogonalLoop=1;strokeWidth=3;fontFamily=Helvetica;fontSize=16;fontColor=#23445D;spacing=5;" parent="YGjA9PhLy6F1NZ8P3_q6-1" source="299lqJNVyr8fBAvR65Sl-3" target="299lqJNVyr8fBAvR65Sl-18" edge="1">
          <mxGeometry relative="1" as="geometry" />
        </mxCell>
        <mxCell id="299lqJNVyr8fBAvR65Sl-1" value="" style="edgeStyle=none;rounded=0;jumpStyle=none;html=1;shadow=0;labelBackgroundColor=none;startArrow=none;startFill=0;endArrow=classic;endFill=1;jettySize=auto;orthogonalLoop=1;strokeWidth=3;fontFamily=Helvetica;fontSize=16;fontColor=#23445D;spacing=5;" parent="YGjA9PhLy6F1NZ8P3_q6-1" source="299lqJNVyr8fBAvR65Sl-3" target="299lqJNVyr8fBAvR65Sl-14" edge="1">
          <mxGeometry relative="1" as="geometry" />
        </mxCell>
        <mxCell id="299lqJNVyr8fBAvR65Sl-2" value="" style="edgeStyle=none;rounded=0;jumpStyle=none;html=1;shadow=0;labelBackgroundColor=none;startArrow=none;startFill=0;endArrow=classic;endFill=1;jettySize=auto;orthogonalLoop=1;strokeWidth=3;fontFamily=Helvetica;fontSize=16;fontColor=#23445D;spacing=5;" parent="YGjA9PhLy6F1NZ8P3_q6-1" source="299lqJNVyr8fBAvR65Sl-3" target="299lqJNVyr8fBAvR65Sl-7" edge="1">
          <mxGeometry relative="1" as="geometry" />
        </mxCell>
        <mxCell id="299lqJNVyr8fBAvR65Sl-3" value="DeFi Security" style="rounded=1;whiteSpace=wrap;html=1;shadow=0;labelBackgroundColor=none;strokeWidth=3;fontFamily=Helvetica;fontSize=16;align=center;fontStyle=1;spacing=5;arcSize=7;perimeterSpacing=2;strokeColor=#36393d;fillColor=#B3B3B3;" parent="YGjA9PhLy6F1NZ8P3_q6-1" vertex="1">
          <mxGeometry x="501" y="146" width="150" height="70" as="geometry" />
        </mxCell>
        <mxCell id="299lqJNVyr8fBAvR65Sl-4" value="" style="edgeStyle=none;rounded=1;jumpStyle=none;html=1;shadow=0;labelBackgroundColor=none;startArrow=none;startFill=0;jettySize=auto;orthogonalLoop=1;strokeWidth=3;fontFamily=Helvetica;fontSize=16;fontColor=#FFFFFF;spacing=5;fontStyle=1;" parent="YGjA9PhLy6F1NZ8P3_q6-1" source="299lqJNVyr8fBAvR65Sl-7" target="299lqJNVyr8fBAvR65Sl-10" edge="1">
          <mxGeometry relative="1" as="geometry" />
        </mxCell>
        <mxCell id="299lqJNVyr8fBAvR65Sl-5" value="" style="edgeStyle=none;rounded=1;jumpStyle=none;html=1;shadow=0;labelBackgroundColor=none;startArrow=none;startFill=0;jettySize=auto;orthogonalLoop=1;strokeWidth=3;fontFamily=Helvetica;fontSize=16;fontColor=#FFFFFF;spacing=5;fontStyle=1;" parent="YGjA9PhLy6F1NZ8P3_q6-1" source="299lqJNVyr8fBAvR65Sl-7" target="299lqJNVyr8fBAvR65Sl-9" edge="1">
          <mxGeometry relative="1" as="geometry" />
        </mxCell>
        <mxCell id="299lqJNVyr8fBAvR65Sl-6" value="" style="edgeStyle=none;rounded=1;jumpStyle=none;html=1;shadow=0;labelBackgroundColor=none;startArrow=none;startFill=0;jettySize=auto;orthogonalLoop=1;strokeWidth=3;fontFamily=Helvetica;fontSize=16;fontColor=#FFFFFF;spacing=5;fontStyle=1;" parent="YGjA9PhLy6F1NZ8P3_q6-1" source="299lqJNVyr8fBAvR65Sl-7" edge="1">
          <mxGeometry relative="1" as="geometry">
            <mxPoint x="269.99999999999955" y="258" as="targetPoint" />
          </mxGeometry>
        </mxCell>
        <mxCell id="299lqJNVyr8fBAvR65Sl-7" value="Economical Security" style="rounded=1;whiteSpace=wrap;html=1;shadow=0;labelBackgroundColor=none;strokeWidth=3;fontFamily=Helvetica;fontSize=16;align=center;spacing=5;fontStyle=1;arcSize=7;perimeterSpacing=2;fillColor=#f5f5f5;strokeColor=#666666;fontColor=#333333;" parent="YGjA9PhLy6F1NZ8P3_q6-1" vertex="1">
          <mxGeometry x="300" y="151" width="150" height="60" as="geometry" />
        </mxCell>
        <mxCell id="299lqJNVyr8fBAvR65Sl-8" value="Market &amp;amp; Oracle Manipulation" style="rounded=1;whiteSpace=wrap;html=1;shadow=0;labelBackgroundColor=none;strokeWidth=3;fontFamily=Helvetica;fontSize=16;align=center;spacing=5;fontStyle=0;arcSize=7;perimeterSpacing=2;" parent="YGjA9PhLy6F1NZ8P3_q6-1" vertex="1">
          <mxGeometry x="120" y="260" width="150" height="60" as="geometry" />
        </mxCell>
        <mxCell id="299lqJNVyr8fBAvR65Sl-9" value="Miner Extractable Value" style="rounded=1;whiteSpace=wrap;html=1;shadow=0;labelBackgroundColor=none;strokeWidth=3;fontFamily=Helvetica;fontSize=16;align=center;spacing=5;fontStyle=0;arcSize=7;perimeterSpacing=2;" parent="YGjA9PhLy6F1NZ8P3_q6-1" vertex="1">
          <mxGeometry x="120" y="190" width="150" height="60" as="geometry" />
        </mxCell>
        <mxCell id="299lqJNVyr8fBAvR65Sl-10" value="Rug Pulls" style="rounded=1;whiteSpace=wrap;html=1;shadow=0;labelBackgroundColor=none;strokeWidth=3;fontFamily=Helvetica;fontSize=16;align=center;spacing=5;fontStyle=0;arcSize=7;perimeterSpacing=2;" parent="YGjA9PhLy6F1NZ8P3_q6-1" vertex="1">
          <mxGeometry x="120" y="120" width="150" height="60" as="geometry" />
        </mxCell>
        <mxCell id="299lqJNVyr8fBAvR65Sl-11" value="" style="edgeStyle=none;rounded=0;jumpStyle=none;html=1;shadow=0;labelBackgroundColor=none;startArrow=none;startFill=0;endArrow=classic;endFill=1;jettySize=auto;orthogonalLoop=1;strokeWidth=3;fontFamily=Helvetica;fontSize=16;fontColor=#FFFFFF;spacing=5;" parent="YGjA9PhLy6F1NZ8P3_q6-1" source="299lqJNVyr8fBAvR65Sl-14" target="299lqJNVyr8fBAvR65Sl-17" edge="1">
          <mxGeometry relative="1" as="geometry" />
        </mxCell>
        <mxCell id="299lqJNVyr8fBAvR65Sl-12" value="" style="edgeStyle=none;rounded=0;jumpStyle=none;html=1;shadow=0;labelBackgroundColor=none;startArrow=none;startFill=0;endArrow=classic;endFill=1;jettySize=auto;orthogonalLoop=1;strokeWidth=3;fontFamily=Helvetica;fontSize=16;fontColor=#FFFFFF;spacing=5;" parent="YGjA9PhLy6F1NZ8P3_q6-1" source="299lqJNVyr8fBAvR65Sl-14" target="299lqJNVyr8fBAvR65Sl-16" edge="1">
          <mxGeometry relative="1" as="geometry" />
        </mxCell>
        <mxCell id="299lqJNVyr8fBAvR65Sl-13" value="" style="edgeStyle=none;rounded=0;jumpStyle=none;html=1;shadow=0;labelBackgroundColor=none;startArrow=none;startFill=0;endArrow=classic;endFill=1;jettySize=auto;orthogonalLoop=1;strokeWidth=3;fontFamily=Helvetica;fontSize=16;fontColor=#FFFFFF;spacing=5;" parent="YGjA9PhLy6F1NZ8P3_q6-1" source="299lqJNVyr8fBAvR65Sl-14" target="299lqJNVyr8fBAvR65Sl-15" edge="1">
          <mxGeometry relative="1" as="geometry" />
        </mxCell>
        <mxCell id="299lqJNVyr8fBAvR65Sl-14" value="Technical Security" style="rounded=1;whiteSpace=wrap;html=1;shadow=0;labelBackgroundColor=none;strokeWidth=3;fontFamily=Helvetica;fontSize=16;align=center;spacing=5;fontStyle=1;arcSize=7;perimeterSpacing=2;fillColor=#f5f5f5;strokeColor=#666666;fontColor=#333333;" parent="YGjA9PhLy6F1NZ8P3_q6-1" vertex="1">
          <mxGeometry x="501" y="260" width="150" height="60" as="geometry" />
        </mxCell>
        <mxCell id="299lqJNVyr8fBAvR65Sl-15" value="Front-running" style="rounded=1;whiteSpace=wrap;html=1;shadow=0;labelBackgroundColor=none;strokeWidth=3;fontFamily=Helvetica;fontSize=16;align=center;spacing=5;arcSize=7;perimeterSpacing=2;" parent="YGjA9PhLy6F1NZ8P3_q6-1" vertex="1">
          <mxGeometry x="660" y="350" width="150" height="60" as="geometry" />
        </mxCell>
        <mxCell id="299lqJNVyr8fBAvR65Sl-16" value="Single Transaction Attacks" style="rounded=1;whiteSpace=wrap;html=1;shadow=0;labelBackgroundColor=none;strokeWidth=3;fontFamily=Helvetica;fontSize=16;align=center;spacing=5;arcSize=7;perimeterSpacing=2;" parent="YGjA9PhLy6F1NZ8P3_q6-1" vertex="1">
          <mxGeometry x="501" y="350" width="150" height="60" as="geometry" />
        </mxCell>
        <mxCell id="299lqJNVyr8fBAvR65Sl-17" value="Smart contract vulnerabilities" style="rounded=1;whiteSpace=wrap;html=1;shadow=0;labelBackgroundColor=none;strokeWidth=3;fontFamily=Helvetica;fontSize=16;align=center;spacing=5;arcSize=7;perimeterSpacing=2;" parent="YGjA9PhLy6F1NZ8P3_q6-1" vertex="1">
          <mxGeometry x="340" y="350" width="150" height="60" as="geometry" />
        </mxCell>
        <mxCell id="299lqJNVyr8fBAvR65Sl-18" value="Operational Security" style="rounded=1;whiteSpace=wrap;html=1;shadow=0;labelBackgroundColor=none;strokeWidth=3;fontFamily=Helvetica;fontSize=16;align=center;spacing=5;fontStyle=1;arcSize=7;perimeterSpacing=2;fillColor=#f5f5f5;strokeColor=#666666;fontColor=#333333;" parent="YGjA9PhLy6F1NZ8P3_q6-1" vertex="1">
          <mxGeometry x="701" y="150.9999999999999" width="150" height="60" as="geometry" />
        </mxCell>
        <mxCell id="299lqJNVyr8fBAvR65Sl-19" value="Centralization" style="rounded=1;whiteSpace=wrap;html=1;shadow=0;labelBackgroundColor=none;strokeWidth=3;fontFamily=Helvetica;fontSize=16;align=center;spacing=5;fontStyle=0;arcSize=7;perimeterSpacing=2;" parent="YGjA9PhLy6F1NZ8P3_q6-1" vertex="1">
          <mxGeometry x="890" y="190" width="150" height="60" as="geometry" />
        </mxCell>
        <mxCell id="299lqJNVyr8fBAvR65Sl-20" value="" style="edgeStyle=none;rounded=1;jumpStyle=none;html=1;shadow=0;labelBackgroundColor=none;startArrow=none;startFill=0;jettySize=auto;orthogonalLoop=1;strokeWidth=3;fontFamily=Helvetica;fontSize=16;fontColor=#FFFFFF;spacing=5;fontStyle=1;" parent="YGjA9PhLy6F1NZ8P3_q6-1" source="299lqJNVyr8fBAvR65Sl-18" target="299lqJNVyr8fBAvR65Sl-19" edge="1">
          <mxGeometry relative="1" as="geometry" />
        </mxCell>
        <mxCell id="299lqJNVyr8fBAvR65Sl-21" value="Governance attacks" style="rounded=1;whiteSpace=wrap;html=1;shadow=0;labelBackgroundColor=none;strokeWidth=3;fontFamily=Helvetica;fontSize=16;align=center;spacing=5;fontStyle=0;arcSize=7;perimeterSpacing=2;" parent="YGjA9PhLy6F1NZ8P3_q6-1" vertex="1">
          <mxGeometry x="890" y="120" width="150" height="60" as="geometry" />
        </mxCell>
        <mxCell id="299lqJNVyr8fBAvR65Sl-22" value="" style="edgeStyle=none;rounded=1;jumpStyle=none;html=1;shadow=0;labelBackgroundColor=none;startArrow=none;startFill=0;jettySize=auto;orthogonalLoop=1;strokeWidth=3;fontFamily=Helvetica;fontSize=16;fontColor=#FFFFFF;spacing=5;fontStyle=1;" parent="YGjA9PhLy6F1NZ8P3_q6-1" source="299lqJNVyr8fBAvR65Sl-18" target="299lqJNVyr8fBAvR65Sl-21" edge="1">
          <mxGeometry relative="1" as="geometry" />
        </mxCell>
      </root>
    </mxGraphModel>
  </diagram>
</mxfile>
